#N canvas 543 150 650 399 10;
#X obj 52 30 udpreceive 1735;
#X obj 52 51 unpackOSC;
#X obj 52 72 pipelist;
#X floatatom 133 71 5 0 0 0 - - -;
#X text 175 70 millisecond_delay;
#X obj 131 152 routeOSC /inst;
#X obj 268 185 print route-err;
#X obj 244 255 print unknown-inst;
#X obj 118 204 routeOSC /beep;
#X obj 74 354 dac~;
#N canvas 125 284 450 300 beep 1;
#X obj 131 232 *~;
#X obj 182 203 line~;
#X msg 165 107 1 25;
#X msg 232 164 0 25;
#X obj 224 69 delay 100;
#X msg 224 90 0 25;
#X obj 138 14 inlet;
#X obj 135 268 outlet~;
#X obj 91 169 osc~ 1000;
#X obj 138 44 t b b f;
#X connect 0 0 7 0;
#X connect 1 0 0 1;
#X connect 2 0 1 0;
#X connect 3 0 1 0;
#X connect 4 0 5 0;
#X connect 5 0 1 0;
#X connect 6 0 9 0;
#X connect 8 0 0 0;
#X connect 9 0 4 0;
#X connect 9 1 2 0;
#X connect 9 2 8 0;
#X restore 41 263 pd beep 1000;
#X obj 180 297 print /inst/beep;
#X obj 477 29 loadbang;
#X msg 477 63 \; pd dsp 1;
#X connect 0 0 1 0;
#X connect 1 0 2 0;
#X connect 1 1 2 1;
#X connect 1 1 3 0;
#X connect 2 0 5 0;
#X connect 5 0 8 0;
#X connect 5 1 6 0;
#X connect 8 0 10 0;
#X connect 8 0 11 0;
#X connect 8 1 7 0;
#X connect 10 0 9 0;
#X connect 12 0 13 0;
